<svg xmlns="http://www.w3.org/2000/svg" xmlns:xlink="http://www.w3.org/1999/xlink" viewBox="0 0 84.31 81.88"><defs><style>.cls-1{fill:url(#Degradado_sin_nombre_13);}.cls-2{fill:url(#Degradado_sin_nombre_7);}.cls-3{fill:url(#Degradado_sin_nombre_92);}.cls-4{fill:url(#Degradado_sin_nombre_83);}</style><linearGradient id="Degradado_sin_nombre_13" y1="26.8" x2="84.21" y2="26.8" gradientUnits="userSpaceOnUse"><stop offset="0" stop-color="#e74b1e"/><stop offset="0.2" stop-color="#ec6a22"/><stop offset="0.97" stop-color="#f7ab2d"/></linearGradient><linearGradient id="Degradado_sin_nombre_7" x1="14.92" y1="30.45" x2="84.31" y2="30.45" gradientUnits="userSpaceOnUse"><stop offset="0.1" stop-color="#e74b1e"/><stop offset="0.97" stop-color="#f7ab2d"/></linearGradient><linearGradient id="Degradado_sin_nombre_92" x1="124.58" y1="631.8" x2="208.86" y2="631.8" gradientTransform="translate(208.89 688) rotate(180)" gradientUnits="userSpaceOnUse"><stop offset="0" stop-color="#2d2e82"/><stop offset="0.14" stop-color="#2a3c8d"/><stop offset="1" stop-color="#1d70b7"/></linearGradient><linearGradient id="Degradado_sin_nombre_83" x1="139.5" y1="634.54" x2="208.89" y2="634.54" gradientTransform="translate(208.89 688) rotate(180)" gradientUnits="userSpaceOnUse"><stop offset="0.11" stop-color="#2d2e82"/><stop offset="1" stop-color="#1d70b7"/></linearGradient></defs><g id="Capa_2" data-name="Capa 2"><g id="Capa_1-2" data-name="Capa 1"><path class="cls-1" d="M0,44.05C0,19.76,19,0,42.29,0,63,0,81,16.05,84.1,37.34a9.5,9.5,0,0,1-7.68,10.89,9.23,9.23,0,0,1-10.45-8C64.2,28.19,54,19.11,42.29,19.11c-13.2,0-23.95,11.19-23.95,24.94A9.36,9.36,0,0,1,9.17,53.6,9.37,9.37,0,0,1,0,44.05"/><path class="cls-2" d="M24.1,52.39a9.16,9.16,0,0,1-9.18-9.15A34.85,34.85,0,0,1,84.2,38,9.18,9.18,0,0,1,66,40.72a16.48,16.48,0,0,0-32.75,2.52A9.16,9.16,0,0,1,24.1,52.39Z"/><path class="cls-3" d="M84.31,39.68A42.34,42.34,0,0,1,.14,46.1a9.18,9.18,0,0,1,18.15-2.77A24,24,0,0,0,66,39.68a9.18,9.18,0,0,1,18.36,0"/><path class="cls-4" d="M60.2,31.52a9.17,9.17,0,0,1,9.18,9.15A34.85,34.85,0,0,1,.11,46a9.18,9.18,0,0,1,18.15-2.77A16.48,16.48,0,0,0,51,40.67,9.17,9.17,0,0,1,60.2,31.52Z"/></g></g></svg>